# xmcd
#
# Track frame offsets: 
#        150
#        6785
#        25902
#        44398
#        68472
#        88611
#        107013
#        123758
#        148954
#        169192
#
# Disc length: 2499 seconds
#
# Revision: 0
# Processed by: cddbd v1.5.2PL0 Copyright (c) Steve Scherf et al.
# Submitted via: ExactAudioCopy v1.3
#
DISCID=7c09c10a
DTITLE=Marcin Patrzałek - Hush
DYEAR=2016
DGENRE=Instrumental
TTITLE0=01 Penumbra (Intro)
TTITLE1=02 Salt
TTITLE2=03 Storm
TTITLE3=04 Hush
TTITLE4=05 Paper Thin Sky
TTITLE5=06 Asturias
TTITLE6=07 Phoenix Rising (cover)
TTITLE7=08 For The Sleep
TTITLE8=09 Salt (Hortensja - Hydrangea) – Essex Remix
TTITLE9=10 Hush – Essex Remix
EXTD=
EXTT0=
EXTT1=
EXTT2=
EXTT3=
EXTT4=
EXTT5=
EXTT6=
EXTT7=
EXTT8=
EXTT9=
PLAYORDER=
